<?xml version="1.0" encoding="UTF-8" standalone="no"?>
<!-- Created with Inkscape (http://www.inkscape.org/) -->
<svg
   xmlns:dc="http://purl.org/dc/elements/1.1/"
   xmlns:cc="http://web.resource.org/cc/"
   xmlns:rdf="http://www.w3.org/1999/02/22-rdf-syntax-ns#"
   xmlns:svg="http://www.w3.org/2000/svg"
   xmlns="http://www.w3.org/2000/svg"
   xmlns:sodipodi="http://sodipodi.sourceforge.net/DTD/sodipodi-0.dtd"
   xmlns:inkscape="http://www.inkscape.org/namespaces/inkscape"
   id="svg2"
   sodipodi:version="0.32"
   inkscape:version="0.45.1"
   width="210mm"
   height="297mm"
   sodipodi:docbase="/home/ebunders/workspace/themasites/vpro-wizards/resources"
   sodipodi:docname="icons.svg"
   inkscape:output_extension="org.inkscape.output.svg.inkscape">
  <metadata
     id="metadata7">
    <rdf:RDF>
      <cc:Work
         rdf:about="">
        <dc:format>image/svg+xml</dc:format>
        <dc:type
           rdf:resource="http://purl.org/dc/dcmitype/StillImage" />
      </cc:Work>
    </rdf:RDF>
  </metadata>
  <defs
     id="defs5" />
  <sodipodi:namedview
     inkscape:window-height="967"
     inkscape:window-width="1267"
     inkscape:pageshadow="2"
     inkscape:pageopacity="0.0"
     guidetolerance="10.0"
     gridtolerance="10.0"
     objecttolerance="10.0"
     borderopacity="1.0"
     bordercolor="#666666"
     pagecolor="#ffffff"
     id="base"
     inkscape:zoom="1"
     inkscape:cx="343.67577"
     inkscape:cy="721.23633"
     inkscape:window-x="33"
     inkscape:window-y="30"
     inkscape:current-layer="svg2" />
  <path
     sodipodi:type="star"
     style="opacity:1;fill:#fff437;fill-opacity:1;fill-rule:nonzero;stroke:#5d5d5d;stroke-width:7.4000001;stroke-miterlimit:4;stroke-dasharray:none;stroke-opacity:1"
     id="path2159"
     sodipodi:sides="5"
     sodipodi:cx="305.10745"
     sodipodi:cy="385.26282"
     sodipodi:r1="47.183804"
     sodipodi:r2="23.591902"
     sodipodi:arg1="-0.16514868"
     sodipodi:arg2="0.46316985"
     inkscape:flatsided="false"
     inkscape:rounded="0.11"
     inkscape:randomized="0"
     d="M 351.64927,377.50585 C 352.21589,380.9056 327.75364,392.71984 326.21373,395.80335 C 324.67382,398.88686 329.92524,425.54021 326.86698,427.12968 C 323.80872,428.71915 305.01346,409.10497 301.605,408.59328 C 298.19655,408.0816 274.4705,421.31233 272.01376,418.89493 C 269.55703,416.47753 282.40317,392.54105 281.83654,389.1413 C 281.26992,385.74155 261.35499,367.26525 262.8949,364.18174 C 264.43481,361.09823 291.16943,365.91886 294.22769,364.32939 C 297.28595,362.73991 308.7039,338.0902 312.11235,338.60188 C 315.5208,339.11357 319.19756,366.02936 321.6543,368.44676 C 324.11103,370.86416 351.08264,374.1061 351.64927,377.50585 z "
     transform="matrix(7.7665219e-2,0.1534138,-0.1534138,7.7665219e-2,309.86638,264.12727)"
     inkscape:export-filename="/home/ebunders/workspace/themasites/themasites/webapp/edit/system/img/star_yellow.png"
     inkscape:export-xdpi="90"
     inkscape:export-ydpi="90" />
  <path
     inkscape:export-ydpi="90"
     inkscape:export-xdpi="90"
     inkscape:export-filename="/home/ebunders/workspace/themasites/themasites/webapp/edit/system/img/star_empty.png"
     transform="matrix(7.7665219e-2,0.1534138,-0.1534138,7.7665219e-2,334.86638,264.12727)"
     d="M 351.64927,377.50585 C 352.21589,380.9056 327.75364,392.71984 326.21373,395.80335 C 324.67382,398.88686 329.92524,425.54021 326.86698,427.12968 C 323.80872,428.71915 305.01346,409.10497 301.605,408.59328 C 298.19655,408.0816 274.4705,421.31233 272.01376,418.89493 C 269.55703,416.47753 282.40317,392.54105 281.83654,389.1413 C 281.26992,385.74155 261.35499,367.26525 262.8949,364.18174 C 264.43481,361.09823 291.16943,365.91886 294.22769,364.32939 C 297.28595,362.73991 308.7039,338.0902 312.11235,338.60188 C 315.5208,339.11357 319.19756,366.02936 321.6543,368.44676 C 324.11103,370.86416 351.08264,374.1061 351.64927,377.50585 z "
     inkscape:randomized="0"
     inkscape:rounded="0.11"
     inkscape:flatsided="false"
     sodipodi:arg2="0.46316985"
     sodipodi:arg1="-0.16514868"
     sodipodi:r2="23.591902"
     sodipodi:r1="47.183804"
     sodipodi:cy="385.26282"
     sodipodi:cx="305.10745"
     sodipodi:sides="5"
     id="path2164"
     style="opacity:1;fill:none;fill-opacity:1;fill-rule:nonzero;stroke:#5d5d5d;stroke-width:7.4000001;stroke-miterlimit:4;stroke-dasharray:none;stroke-opacity:1"
     sodipodi:type="star" />
</svg>
